<svg width="14" height="14" viewBox="0 0 14 14" fill="none" xmlns="http://www.w3.org/2000/svg">
<path fill-rule="evenodd" clip-rule="evenodd" d="M6.94991 0.349976C7.08252 0.349976 7.20969 0.402654 7.30346 0.496422C7.39723 0.59019 7.44991 0.717367 7.44991 0.849976V3.02198C7.44991 3.15458 7.39723 3.28176 7.30346 3.37553C7.20969 3.4693 7.08252 3.52198 6.94991 3.52198C6.8173 3.52198 6.69012 3.4693 6.59636 3.37553C6.50259 3.28176 6.44991 3.15458 6.44991 3.02198V1.37198C5.18912 1.48409 4.0025 2.01631 3.08029 2.88332C2.15809 3.75032 1.55373 4.90188 1.36411 6.15336C1.17449 7.40484 1.41059 8.68374 2.03457 9.78502C2.65855 10.8863 3.63425 11.7462 4.80524 12.2267C5.97622 12.7073 7.27466 12.7807 8.49237 12.4353C9.71008 12.0898 10.7765 11.3455 11.5207 10.3216C12.2649 9.29769 12.6437 8.05356 12.5964 6.78868C12.5491 5.52381 12.0785 4.31144 11.2599 3.34598C11.2153 3.29625 11.1811 3.23808 11.1593 3.17491C11.1376 3.11175 11.1287 3.04486 11.1332 2.9782C11.1377 2.91154 11.1556 2.84647 11.1857 2.78682C11.2158 2.72717 11.2575 2.67416 11.3084 2.63092C11.3594 2.58767 11.4185 2.55508 11.4822 2.53505C11.5459 2.51502 11.613 2.50797 11.6795 2.51432C11.7461 2.52066 11.8106 2.54027 11.8694 2.57199C11.9282 2.6037 11.9801 2.64688 12.0219 2.69898C13.0018 3.85452 13.5578 5.31004 13.5977 6.82461C13.6377 8.33918 13.1592 9.82198 12.2416 11.0276C11.324 12.2332 10.0222 13.0893 8.5517 13.4542C7.08121 13.8191 5.53019 13.671 4.15538 13.0342C2.78057 12.3975 1.6644 11.3104 0.99162 9.9529C0.318843 8.59538 0.129798 7.04881 0.455778 5.5692C0.781758 4.08958 1.60322 2.76565 2.78418 1.81652C3.96515 0.867401 5.43481 0.350004 6.94991 0.349976ZM7.70991 7.57998L10.2259 4.07298C10.2594 4.02483 10.2749 3.96645 10.2697 3.90803C10.2645 3.84961 10.2389 3.79488 10.1975 3.75341C10.156 3.71194 10.1013 3.68637 10.0429 3.68117C9.98444 3.67597 9.92605 3.69148 9.87791 3.72498L6.36891 6.23998C6.25601 6.32126 6.16212 6.42611 6.09375 6.54727C6.02538 6.66844 5.98416 6.80301 5.97295 6.94167C5.96173 7.08034 5.98079 7.21979 6.0288 7.35036C6.07681 7.48094 6.15263 7.59951 6.251 7.69789C6.34937 7.79626 6.46795 7.87207 6.59852 7.92008C6.72909 7.9681 6.86854 7.98715 7.00721 7.97594C7.14588 7.96472 7.28045 7.9235 7.40161 7.85513C7.52277 7.78676 7.62762 7.69288 7.70891 7.57998H7.70991Z" fill="white"/>
</svg>
